<?xml version="1.0" encoding="utf-8"?>
<!-- Generator: Adobe Illustrator 17.1.0, SVG Export Plug-In . SVG Version: 6.00 Build 0)  -->
<!DOCTYPE svg PUBLIC "-//W3C//DTD SVG 1.1//EN" "http://www.w3.org/Graphics/SVG/1.1/DTD/svg11.dtd">
<svg version="1.1" id="レイヤー_1" xmlns="http://www.w3.org/2000/svg" xmlns:xlink="http://www.w3.org/1999/xlink" x="0px"
	 y="0px" viewBox="0 0 414 110" enable-background="new 0 0 414 110" xml:space="preserve">
<polygon fill="#F9CC96" points="63.243,70.052 25.868,89.558 25.868,33.528 63.243,20.75 "/>
<polygon fill="#ECA961" points="63.243,70.052 100.619,89.558 100.619,33.528 63.243,20.75 "/>
<polyline fill="#FFFFFF" points="63.243,31.75 63.243,67.719 38.055,63.205 38.055,41.354 "/>
<polyline fill="#FFFFFF" points="63.243,31.75 63.243,62.967 88.432,58.454 88.432,41.354 "/>
<polyline fill="#F9CC96" points="63.243,84.667 63.243,51.978 88.432,41.35 88.432,71.725 "/>
<polyline fill="#ECA961" points="63.243,84.667 63.243,51.978 38.055,41.35 38.055,71.725 "/>
<g>
	<path fill="#2C2D2D" d="M119.914,57.114c0-1.69,0.321-3.298,0.966-4.827c0.643-1.528,1.528-2.865,2.654-4.011
		c1.126-1.146,2.443-2.061,3.95-2.745c1.509-0.683,3.108-1.025,4.797-1.025c1.689,0,3.288,0.342,4.797,1.025
		c1.507,0.684,2.825,1.599,3.95,2.745c1.126,1.146,2.011,2.483,2.654,4.011c0.643,1.529,0.966,3.137,0.966,4.827
		c0,1.73-0.322,3.369-0.966,4.917c-0.643,1.548-1.528,2.895-2.654,4.041c-1.126,1.146-2.443,2.062-3.95,2.745
		c-1.509,0.683-3.108,1.025-4.797,1.025c-1.689,0-3.288-0.342-4.797-1.025c-1.507-0.683-2.825-1.599-3.95-2.745
		c-1.126-1.146-2.011-2.493-2.654-4.041C120.234,60.483,119.914,58.844,119.914,57.114z M126.489,57.114
		c0,1.73,0.553,3.197,1.659,4.404c1.106,1.206,2.483,1.81,4.132,1.81c0.805,0,1.558-0.16,2.263-0.483
		c0.702-0.322,1.316-0.763,1.839-1.327c0.522-0.563,0.934-1.227,1.237-1.991c0.301-0.763,0.452-1.569,0.452-2.413
		c0-0.845-0.151-1.639-0.452-2.384c-0.303-0.744-0.715-1.387-1.237-1.93c-0.524-0.542-1.137-0.975-1.839-1.297
		c-0.705-0.322-1.458-0.483-2.263-0.483c-0.805,0-1.56,0.161-2.262,0.483c-0.704,0.322-1.317,0.754-1.841,1.297
		c-0.522,0.543-0.934,1.186-1.236,1.93C126.639,55.476,126.489,56.269,126.489,57.114z"/>
	<path fill="#2C2D2D" d="M151.526,46.256c0-0.322,0.11-0.593,0.332-0.815c0.219-0.22,0.491-0.331,0.813-0.331h2.293
		c0.522,0,0.884,0.262,1.087,0.784l0.844,2.353c0.2-0.281,0.491-0.643,0.874-1.086c0.383-0.443,0.864-0.854,1.448-1.237
		c0.583-0.381,1.245-0.714,1.992-0.995c0.743-0.281,1.578-0.422,2.502-0.422c0.725,0,1.398,0.051,2.021,0.151
		c0.624,0.101,1.167,0.262,1.63,0.483c0.461,0.221,0.784,0.482,0.964,0.784c0.182,0.302,0.191,0.633,0.031,0.996l-2.232,3.921
		c-0.162,0.281-0.373,0.473-0.633,0.573c-0.262,0.101-0.512,0.091-0.754-0.029c-0.08-0.04-0.313-0.11-0.694-0.212
		c-0.383-0.1-0.735-0.151-1.056-0.151c-1.206,0-2.172,0.302-2.895,0.905c-0.725,0.603-1.188,1.127-1.388,1.569v14.599
		c0,0.764-0.463,1.146-1.388,1.146h-4.646c-0.322,0-0.594-0.11-0.813-0.332c-0.223-0.22-0.332-0.492-0.332-0.814V46.256z"/>
	<path fill="#2C2D2D" d="M177.163,36.542c-1.167,0-2.142-0.401-2.926-1.206c-0.784-0.804-1.177-1.789-1.177-2.956
		c0-1.166,0.393-2.151,1.177-2.955c0.784-0.804,1.759-1.207,2.926-1.207c1.165,0,2.162,0.403,2.987,1.207
		c0.823,0.804,1.236,1.789,1.236,2.955c0,1.167-0.412,2.152-1.236,2.956C179.324,36.141,178.328,36.542,177.163,36.542z
		 M173.603,46.256c0-0.322,0.11-0.593,0.332-0.815c0.219-0.22,0.491-0.331,0.813-0.331h5.008c0.321,0,0.592,0.111,0.815,0.331
		c0.219,0.222,0.331,0.493,0.331,0.815v21.838c0,0.322-0.111,0.594-0.331,0.814c-0.223,0.222-0.494,0.332-0.815,0.332h-5.008
		c-0.322,0-0.594-0.11-0.813-0.332c-0.223-0.22-0.332-0.492-0.332-0.814V46.256z"/>
	<path fill="#2C2D2D" d="M187.117,67.43c0-1.166,0.231-2.172,0.692-3.016c0.463-0.844,0.975-1.548,1.54-2.112
		c0.682-0.642,1.447-1.186,2.291-1.628c-0.362-0.402-0.663-0.885-0.905-1.448c-0.241-0.483-0.452-1.075-0.633-1.78
		c-0.18-0.703-0.272-1.518-0.272-2.443c0-1.407,0.272-2.744,0.815-4.012c0.543-1.267,1.276-2.383,2.203-3.348
		c0.925-0.965,2.029-1.728,3.317-2.292c1.286-0.563,2.674-0.844,4.163-0.844h10.979c0.764,0,1.146,0.385,1.146,1.156v2.01
		c0,0.204-0.059,0.407-0.18,0.609c-0.121,0.204-0.281,0.345-0.483,0.426l-3.378,1.096c0.442,0.361,0.844,0.841,1.206,1.443
		c0.321,0.523,0.602,1.174,0.844,1.956c0.241,0.782,0.362,1.694,0.362,2.736c0,1.203-0.241,2.365-0.723,3.487
		c-0.483,1.123-1.167,2.125-2.052,3.007c-0.885,0.883-1.97,1.594-3.257,2.136c-1.288,0.541-2.715,0.811-4.284,0.811
		c-1.167,0-2.141-0.08-2.926-0.241c-0.784-0.16-1.417-0.241-1.9-0.241c-0.442,0-0.925,0.201-1.447,0.603
		c-0.524,0.403-0.786,0.966-0.786,1.689c0,0.644,0.231,1.146,0.694,1.508c0.461,0.362,1.036,0.543,1.72,0.543h7.721
		c1.368,0,2.654,0.191,3.862,0.573c1.206,0.382,2.262,0.935,3.167,1.659c0.905,0.724,1.618,1.608,2.142,2.654
		c0.522,1.046,0.784,2.232,0.784,3.559c0,1.407-0.281,2.724-0.844,3.951c-0.565,1.227-1.398,2.312-2.504,3.257
		s-2.484,1.69-4.132,2.232c-1.65,0.543-3.559,0.815-5.731,0.815c-2.253,0-4.153-0.252-5.702-0.754
		c-1.548-0.503-2.815-1.146-3.8-1.93c-0.987-0.785-1.7-1.669-2.142-2.654c-0.443-0.986-0.663-1.961-0.663-2.926
		c0-0.885,0.159-1.669,0.481-2.352c0.322-0.685,0.694-1.258,1.116-1.72c0.422-0.462,0.825-0.835,1.208-1.116
		c0.381-0.281,0.653-0.462,0.813-0.542v-0.181c-0.241-0.081-0.614-0.252-1.116-0.513c-0.502-0.262-1.005-0.633-1.507-1.116
		c-0.504-0.483-0.946-1.116-1.327-1.9C187.307,69.451,187.117,68.516,187.117,67.43z M194.959,78.349c0,1.045,0.471,1.9,1.417,2.564
		c0.944,0.664,2.242,0.996,3.892,0.996c1.689,0,3.047-0.342,4.072-1.025c1.026-0.685,1.538-1.609,1.538-2.775
		c0-0.281-0.061-0.594-0.18-0.935c-0.121-0.342-0.353-0.664-0.694-0.965c-0.342-0.302-0.795-0.554-1.358-0.754
		c-0.563-0.202-1.288-0.302-2.172-0.302c-0.684,0-1.347,0.02-1.99,0.061c-0.645,0.039-1.288,0.1-1.931,0.181
		c-0.201,0.08-0.443,0.181-0.723,0.302c-0.283,0.12-0.565,0.302-0.844,0.542c-0.283,0.241-0.524,0.533-0.725,0.876
		C195.059,77.454,194.959,77.867,194.959,78.349z M196.287,55.365c0,1.287,0.401,2.333,1.206,3.136
		c0.804,0.805,1.81,1.207,3.016,1.207c1.247,0,2.252-0.402,3.018-1.207c0.763-0.804,1.146-1.849,1.146-3.136
		s-0.383-2.332-1.146-3.137c-0.766-0.804-1.771-1.207-3.018-1.207c-1.206,0-2.213,0.403-3.016,1.207
		C196.688,53.033,196.287,54.078,196.287,55.365z"/>
	<path fill="#2C2D2D" d="M217.279,61.579c0-2.172,0.83-3.982,2.492-5.43c1.661-1.447,4.034-2.172,7.119-2.172
		c0.601,0,1.16,0.04,1.681,0.12c0.52,0.081,0.982,0.161,1.383,0.241c0.44,0.121,0.88,0.222,1.321,0.302
		c0.041-1.528-0.19-2.604-0.694-3.228c-0.502-0.623-1.317-0.934-2.443-0.934c-0.563,0-1.167,0.029-1.81,0.09
		c-0.643,0.061-1.276,0.131-1.9,0.211c-0.624,0.081-1.196,0.172-1.718,0.272c-0.524,0.101-0.966,0.211-1.327,0.332
		c-0.443,0.12-0.766,0.07-0.966-0.151c-0.203-0.22-0.342-0.533-0.422-0.935l-0.543-3.136c-0.082-0.443-0.031-0.785,0.151-1.026
		c0.182-0.241,0.412-0.402,0.694-0.483c0.121-0.039,0.432-0.12,0.934-0.241c0.502-0.12,1.136-0.25,1.902-0.392
		c0.763-0.14,1.607-0.261,2.533-0.362c0.925-0.1,1.87-0.151,2.834-0.151c1.892,0,3.445,0.241,4.662,0.723
		c1.219,0.483,2.172,1.177,2.862,2.082s1.167,2.001,1.43,3.288c0.265,1.288,0.396,2.755,0.396,4.404v13.091
		c0,0.322-0.111,0.594-0.335,0.814c-0.223,0.222-0.496,0.332-0.82,0.332h-2.193c-0.205,0-0.386-0.061-0.548-0.181
		c-0.162-0.121-0.324-0.341-0.488-0.664l-0.73-1.629c-0.682,0.644-1.615,1.318-2.797,2.021c-1.183,0.703-2.697,1.056-4.541,1.056
		c-2.406,0-4.361-0.733-5.864-2.202C218.031,66.174,217.279,64.153,217.279,61.579z M223.855,61.579
		c0,0.925,0.291,1.679,0.874,2.262c0.583,0.583,1.337,0.875,2.263,0.875c0.483,0,0.954-0.09,1.417-0.271
		c0.461-0.182,0.884-0.393,1.267-0.634c0.383-0.241,0.704-0.492,0.966-0.754c0.262-0.261,0.432-0.492,0.514-0.694v-3.318
		c-0.322-0.12-0.664-0.241-1.026-0.362c-0.322-0.08-0.684-0.16-1.087-0.241c-0.403-0.08-0.825-0.121-1.267-0.121
		c-1.167,0-2.111,0.302-2.834,0.905C224.217,59.829,223.855,60.613,223.855,61.579z"/>
	<path fill="#2C2D2D" d="M246.296,46.256c0-0.322,0.11-0.593,0.332-0.815c0.219-0.22,0.491-0.331,0.813-0.331h2.232
		c0.522,0,0.864,0.222,1.026,0.664l0.844,2.292c0.241-0.281,0.604-0.623,1.087-1.025c0.481-0.402,1.064-0.794,1.749-1.177
		c0.682-0.381,1.456-0.703,2.322-0.965c0.864-0.261,1.839-0.392,2.926-0.392c1.728,0,3.217,0.322,4.464,0.965
		c1.245,0.644,2.373,1.569,3.378,2.775c0.242-0.281,0.624-0.633,1.147-1.056c0.522-0.422,1.146-0.834,1.869-1.236
		c0.725-0.402,1.548-0.744,2.474-1.025c0.925-0.281,1.929-0.422,3.016-0.422c1.931,0,3.569,0.331,4.916,0.995
		c1.347,0.664,2.433,1.549,3.258,2.654c0.823,1.107,1.427,2.393,1.81,3.861c0.381,1.468,0.573,2.986,0.573,4.554v11.522
		c0,0.322-0.111,0.594-0.332,0.814c-0.221,0.222-0.493,0.332-0.813,0.332h-4.887c-0.322,0-0.594-0.11-0.815-0.332
		c-0.221-0.22-0.332-0.492-0.332-0.814V56.149c0-1.569-0.371-2.815-1.116-3.74c-0.745-0.925-1.88-1.388-3.407-1.388
		c-0.885,0-1.64,0.131-2.263,0.392c-0.623,0.263-1.157,0.554-1.599,0.875c-0.483,0.403-0.885,0.825-1.206,1.267v0.723
		c0,0.202,0.01,0.443,0.029,0.724c0.02,0.282,0.031,0.564,0.031,0.844v12.247c0,0.322-0.111,0.594-0.332,0.814
		c-0.221,0.222-0.493,0.332-0.815,0.332h-4.523c-0.322,0-0.594-0.11-0.815-0.332c-0.221-0.22-0.332-0.492-0.332-0.814V56.149
		c0-1.569-0.362-2.815-1.085-3.74c-0.725-0.925-1.851-1.388-3.379-1.388c-0.764,0-1.427,0.121-1.99,0.362
		c-0.565,0.241-1.047,0.553-1.448,0.934c-0.403,0.383-0.735,0.795-0.995,1.237c-0.262,0.443-0.473,0.865-0.633,1.267v13.272
		c0,0.322-0.111,0.594-0.332,0.814c-0.221,0.222-0.493,0.332-0.815,0.332h-4.887c-0.322,0-0.594-0.11-0.813-0.332
		c-0.223-0.22-0.332-0.492-0.332-0.814V46.256z"/>
	<path fill="#2C2D2D" d="M298.359,36.542c-1.167,0-2.142-0.401-2.926-1.206c-0.784-0.804-1.177-1.789-1.177-2.956
		c0-1.166,0.393-2.151,1.177-2.955c0.784-0.804,1.759-1.207,2.926-1.207c1.165,0,2.162,0.403,2.987,1.207
		c0.823,0.804,1.236,1.789,1.236,2.955c0,1.167-0.412,2.152-1.236,2.956C300.521,36.141,299.524,36.542,298.359,36.542z
		 M294.8,46.256c0-0.322,0.11-0.593,0.332-0.815c0.219-0.22,0.491-0.331,0.813-0.331h5.008c0.321,0,0.592,0.111,0.815,0.331
		c0.219,0.222,0.331,0.493,0.331,0.815v21.838c0,0.322-0.111,0.594-0.331,0.814c-0.223,0.222-0.494,0.332-0.815,0.332h-5.008
		c-0.322,0-0.594-0.11-0.813-0.332c-0.223-0.22-0.332-0.492-0.332-0.814V46.256z"/>
	<path fill="#2C2D2D" d="M308.975,57.174c0-1.769,0.352-3.428,1.056-4.977c0.704-1.548,1.65-2.896,2.836-4.042
		c1.185-1.146,2.553-2.041,4.103-2.685c1.546-0.642,3.167-0.965,4.855-0.965c1.89,0,3.559,0.362,5.008,1.086
		c1.448,0.723,2.754,1.789,3.921,3.197c0.201,0.282,0.281,0.583,0.241,0.905c-0.039,0.322-0.221,0.583-0.542,0.785l-2.775,2.654
		c-0.281,0.241-0.553,0.322-0.815,0.241c-0.262-0.08-0.493-0.221-0.694-0.423c-0.483-0.562-1.085-1.025-1.81-1.387
		c-0.723-0.362-1.507-0.543-2.352-0.543c-0.805,0-1.569,0.161-2.293,0.483c-0.725,0.322-1.358,0.764-1.9,1.327
		c-0.543,0.564-0.966,1.217-1.268,1.961c-0.301,0.745-0.452,1.538-0.452,2.383c0,1.73,0.563,3.188,1.689,4.374
		s2.514,1.78,4.163,1.78c1.286,0,2.271-0.251,2.956-0.754c0.684-0.502,1.306-1.015,1.87-1.538c0.483-0.483,0.985-0.543,1.509-0.181
		l2.594,2.232c0.682,0.564,0.823,1.126,0.422,1.689c-1.047,1.609-2.353,2.856-3.921,3.74c-1.569,0.885-3.44,1.327-5.612,1.327
		c-1.689,0-3.309-0.322-4.855-0.965c-1.55-0.643-2.916-1.528-4.103-2.654c-1.186-1.126-2.122-2.464-2.805-4.012
		C309.317,60.664,308.975,58.984,308.975,57.174z"/>
	<path fill="#2C2D2D" d="M339.689,64.897c0-1.367,0.483-2.544,1.448-3.53c0.966-0.984,2.131-1.478,3.499-1.478
		c1.366,0,2.543,0.493,3.53,1.478c0.985,0.986,1.478,2.163,1.478,3.53c0,1.367-0.493,2.533-1.478,3.499
		c-0.987,0.965-2.163,1.447-3.53,1.447c-1.368,0-2.533-0.483-3.499-1.447C340.172,67.43,339.689,66.264,339.689,64.897z"/>
	<path fill="#2C2D2D" d="M358.963,46.256c0-0.322,0.11-0.593,0.332-0.815c0.219-0.22,0.491-0.331,0.813-0.331h5.068
		c0.321,0,0.592,0.111,0.813,0.331c0.221,0.222,0.332,0.493,0.332,0.815v29.5c0,2.01-0.281,3.77-0.844,5.278
		c-0.563,1.508-1.348,2.775-2.353,3.801c-1.005,1.025-2.191,1.799-3.559,2.322c-1.366,0.522-2.856,0.785-4.463,0.785
		c-1.609,0-3.067-0.272-4.374-0.815c-1.306-0.542-2.222-1.056-2.744-1.538c-0.201-0.161-0.322-0.382-0.363-0.664
		c-0.039-0.281,0-0.523,0.121-0.723l1.992-3.861c0.119-0.241,0.322-0.392,0.602-0.452c0.283-0.061,0.565-0.011,0.844,0.151
		c0.403,0.241,0.926,0.502,1.569,0.785c0.643,0.281,1.308,0.422,1.99,0.422c1.368,0,2.414-0.473,3.137-1.418
		c0.725-0.945,1.087-2.303,1.087-4.072V46.256z M362.583,36.542c-1.167,0-2.142-0.401-2.926-1.206
		c-0.784-0.804-1.177-1.789-1.177-2.956c0-1.166,0.393-2.151,1.177-2.955c0.784-0.804,1.759-1.207,2.926-1.207
		c1.165,0,2.16,0.403,2.985,1.207c0.825,0.804,1.237,1.789,1.237,2.955c0,1.167-0.412,2.152-1.237,2.956
		C364.744,36.141,363.749,36.542,362.583,36.542z"/>
	<path fill="#2C2D2D" d="M374.106,67.635c-0.201-0.158-0.342-0.348-0.422-0.566c-0.082-0.218-0.061-0.448,0.061-0.687l1.628-3.235
		c0.121-0.321,0.311-0.512,0.573-0.573c0.262-0.061,0.533-0.009,0.815,0.151c0.522,0.282,1.087,0.524,1.689,0.724
		c0.522,0.202,1.116,0.372,1.78,0.513c0.663,0.142,1.335,0.211,2.021,0.211c0.602,0,1.095-0.121,1.478-0.363
		c0.381-0.241,0.573-0.624,0.573-1.15c0-0.565-0.272-1.049-0.815-1.452c-0.542-0.403-1.618-0.928-3.227-1.573
		c-2.332-0.928-4.052-2.027-5.158-3.298s-1.658-2.834-1.658-4.69c0-0.928,0.17-1.815,0.512-2.662c0.34-0.848,0.874-1.605,1.599-2.27
		c0.723-0.666,1.648-1.2,2.774-1.604c1.126-0.403,2.453-0.605,3.983-0.605c1.808,0,3.337,0.2,4.584,0.597s2.191,0.815,2.836,1.253
		c0.28,0.2,0.483,0.439,0.602,0.716c0.121,0.279,0.1,0.577-0.059,0.896l-1.509,3.053c-0.162,0.282-0.383,0.443-0.664,0.483
		c-0.281,0.041-0.542,0.02-0.784-0.061c-0.522-0.241-1.065-0.442-1.628-0.603c-0.483-0.16-1.026-0.311-1.628-0.452
		c-0.604-0.141-1.188-0.211-1.749-0.211c-0.725,0-1.249,0.132-1.569,0.394c-0.322,0.263-0.483,0.595-0.483,0.998
		c0,0.565,0.272,0.988,0.815,1.271c0.543,0.283,1.376,0.646,2.504,1.089c1.165,0.444,2.24,0.918,3.227,1.422
		c0.985,0.505,1.839,1.09,2.564,1.755c0.723,0.666,1.296,1.432,1.718,2.299c0.422,0.867,0.633,1.886,0.633,3.056
		c0,1.008-0.211,1.956-0.633,2.845c-0.422,0.888-1.046,1.663-1.871,2.329c-0.825,0.665-1.83,1.2-3.016,1.604
		c-1.186,0.403-2.543,0.605-4.072,0.605c-2.011,0-3.69-0.249-5.037-0.745C375.744,68.6,374.749,68.112,374.106,67.635z"/>
</g>
</svg>
